<?xml version="1.0" encoding="UTF-8"?>
<svg xmlns="http://www.w3.org/2000/svg" version="1.1" xmlns:xlink="http://www.w3.org/1999/xlink" viewBox="0 0 512 512">
  <defs>
    <style>
      .cls-1 {
        fill: url(#Gradiente_sem_nome_13);
        fill-rule: evenodd;
      }

      .cls-2 {
        fill: url(#Gradiente_sem_nome_18);
      }
    </style>
    <linearGradient id="Gradiente_sem_nome_13" data-name="Gradiente sem nome 13" x1="11" y1="256" x2="501" y2="256" gradientUnits="userSpaceOnUse">
      <stop offset="0" stop-color="#ef2339"/>
      <stop offset="1" stop-color="#ff6709"/>
    </linearGradient>
    <linearGradient id="Gradiente_sem_nome_18" data-name="Gradiente sem nome 18" x1="132.2" y1="255.6" x2="385.9" y2="255.6" gradientUnits="userSpaceOnUse">
      <stop offset="0" stop-color="#fff"/>
      <stop offset="1" stop-color="#ff9aa5"/>
    </linearGradient>
  </defs>
  <!-- Generator: Adobe Illustrator 28.6.0, SVG Export Plug-In . SVG Version: 1.2.0 Build 709)  -->
  <g>
    <g id="Camada_1">
      <g>
        <path class="cls-1" d="M256,11c135.3,0,245,109.7,245,245s-109.7,245-245,245S11,391.3,11,256,120.7,11,256,11h0Z"/>
        <path class="cls-2" d="M259.1,327.6l29.5-49.1h2c-1.3,14.3-2,28.9-2,43.2v37.2h97.3v-206.5h-111.2l-14.6,62.7h-2l-14.6-62.7h-111.2v206.5h97.3v-37.2c0-14.3-.7-28.9-2-43.2h2l29.5,49.1h0Z"/>
      </g>
    </g>
  </g>
</svg>